<?xml version="1.0" encoding="UTF-8"?>
<!DOCTYPE svg PUBLIC "-//W3C//DTD SVG 1.1//EN" "http://www.w3.org/Graphics/SVG/1.1/DTD/svg11.dtd">
<!-- Creator: CorelDRAW 2018 (64 Bit) -->
<svg xmlns="http://www.w3.org/2000/svg" xml:space="preserve" width="2688px" height="715px" class="svg-logo-soft" version="1.1" style="shape-rendering:geometricPrecision; text-rendering:geometricPrecision; image-rendering:optimizeQuality; fill-rule:evenodd; clip-rule:evenodd"
viewBox="0 0 2688 714.62"
 xmlns:xlink="http://www.w3.org/1999/xlink">
 <defs>
  <style type="text/css">
   <![CDATA[
    .fil3 {fill:white}
    .fil1 {fill:#3342B5}
    .fil2 {fill:#D42E12}
    .fil0 {fill:#3342B5;fill-rule:nonzero}
   ]]>
  </style>
 </defs>
 <g id="Capa_x0020_1">
  <metadata id="CorelCorpID_0Corel-Layer"/>
  <path class="fil0" d="M4.01 676.06l14.82 -1.37 -0.13 3.93c0,4.38 1,8.39 3.01,12.03 2,3.61 5.33,6.43 9.97,8.41 4.61,1.98 10.12,2.98 16.53,2.98 9.05,0 15.98,-1.98 20.73,-5.96 4.77,-3.96 7.15,-8.49 7.15,-13.61 0,-3.53 -1.27,-6.78 -3.77,-9.73 -2.59,-2.87 -9.63,-6.78 -21.1,-11.74 -8.91,-3.85 -14.98,-6.83 -18.22,-8.88 -5.12,-3.35 -8.87,-6.99 -11.29,-10.92 -2.43,-3.96 -3.64,-8.44 -3.64,-13.5 0,-5.8 1.61,-11.08 4.8,-15.75 3.19,-4.69 7.86,-8.28 14,-10.76 6.17,-2.45 13.11,-3.69 20.84,-3.69 9.23,0 17.01,1.53 23.33,4.64 6.33,3.09 10.92,7.2 13.8,12.35 2.85,5.16 4.27,10.07 4.27,14.76 0,0.48 -0.03,1.24 -0.08,2.32l-14.58 1.16c0,-3.19 -0.29,-5.69 -0.87,-7.48 -1.03,-3.17 -2.61,-5.81 -4.78,-7.97 -2.16,-2.16 -5.14,-3.9 -8.94,-5.22 -3.77,-1.32 -8.01,-1.98 -12.68,-1.98 -8.26,0 -14.66,1.87 -19.25,5.57 -3.51,2.84 -5.25,6.59 -5.25,11.28 0,2.8 0.71,5.28 2.16,7.47 1.45,2.19 4.04,4.32 7.81,6.43 2.66,1.5 9.02,4.46 19.07,8.89 8.14,3.61 13.76,6.43 16.85,8.52 4.11,2.71 7.28,6.04 9.49,9.91 2.22,3.88 3.32,8.31 3.32,13.24 0,6.14 -1.84,11.79 -5.59,16.98 -3.74,5.17 -8.88,9.18 -15.48,12 -6.59,2.85 -14.16,4.25 -22.65,4.25 -12.82,0 -23.29,-2.8 -31.41,-8.39 -8.1,-5.59 -12.18,-15.64 -12.24,-30.17zm99.94 5.49c0,-16.01 4.72,-29.27 14.14,-39.77 7.78,-8.68 17.98,-13 30.59,-13 9.89,0 17.88,3.11 23.92,9.28 6.04,6.17 9.07,14.53 9.07,25.03 0,9.44 -1.9,18.2 -5.72,26.32 -3.8,8.09 -9.23,14.32 -16.25,18.64 -7.04,4.33 -14.45,6.49 -22.23,6.49 -6.38,0 -12.18,-1.35 -17.4,-4.09 -5.22,-2.71 -9.23,-6.59 -11.98,-11.58 -2.77,-5 -4.14,-10.78 -4.14,-17.32zm13.98 -1.37c0,7.72 1.87,13.58 5.56,17.56 3.72,3.98 8.44,5.99 14.14,5.99 3.01,0 5.96,-0.61 8.89,-1.82 2.95,-1.22 5.67,-3.04 8.2,-5.51 2.51,-2.48 4.67,-5.3 6.43,-8.47 1.8,-3.16 3.22,-6.57 4.3,-10.23 1.61,-5.12 2.4,-10 2.4,-14.69 0,-7.41 -1.87,-13.16 -5.62,-17.27 -3.71,-4.09 -8.41,-6.12 -14.08,-6.12 -4.38,0 -8.38,1.03 -11.97,3.11 -3.61,2.08 -6.88,5.14 -9.78,9.15 -2.91,4.03 -5.04,8.7 -6.41,14.03 -1.37,5.33 -2.06,10.07 -2.06,14.27zm71.27 32.51l14.93 -71.23 -12.53 0 2.25 -10.81 12.52 0 2.4 -11.68c1.24,-5.8 2.51,-10.02 3.83,-12.58 1.31,-2.59 3.45,-4.69 6.4,-6.38 2.96,-1.66 6.99,-2.51 12.08,-2.51 3.56,0 8.71,0.74 15.46,2.24l-2.54 12.21c-4.74,-1.24 -8.7,-1.87 -11.91,-1.87 -2.72,0 -4.81,0.69 -6.2,2.06 -1.43,1.37 -2.64,4.59 -3.69,9.7l-1.85 8.81 15.61 0 -2.24 10.81 -15.61 0 -14.9 71.23 -14.01 0zm72.52 -11.36l-2.3 11.44c-3.35,0.87 -6.59,1.32 -9.75,1.32 -5.54,0 -9.97,-1.37 -13.27,-4.11 -2.48,-2.06 -3.72,-4.86 -3.72,-8.41 0,-1.8 0.66,-5.94 2.01,-12.45l9.96 -47.66 -11.04 0 2.24 -10.81 11.05 0 4.24 -20.17 16.01 -9.66 -6.28 29.83 13.77 0 -2.32 10.81 -13.69 0 -9.49 45.36c-1.19,5.75 -1.77,9.21 -1.77,10.34 0,1.66 0.48,2.9 1.43,3.8 0.94,0.87 2.5,1.29 4.66,1.29 3.09,0 5.86,-0.29 8.26,-0.92zm24.7 11.36l-8.57 -82.04 13.45 0 3.69 36.84 1.48 20.71c0.1,1.55 0.26,4.66 0.44,9.36 1.56,-5.25 2.88,-9.29 3.96,-12.11 1.08,-2.79 2.8,-6.8 5.17,-12l19.54 -42.8 15.24 0 2.69 41.01c0.43,6.25 0.66,14.56 0.77,24.97 2.58,-6.91 6.78,-16.48 12.6,-28.74l17.62 -37.24 13.98 0 -40.09 82.04 -14.53 0 -3.08 -48.12c-0.21,-2.99 -0.37,-8.81 -0.48,-17.46 -2.11,5.51 -4.61,11.44 -7.49,17.82l-21.7 47.76 -14.69 0zm151.79 -10.2c-4.86,4.17 -9.5,7.22 -13.98,9.15 -4.49,1.95 -9.28,2.9 -14.37,2.9 -7.57,0 -13.69,-2.22 -18.33,-6.67 -4.62,-4.46 -6.94,-10.15 -6.94,-17.12 0,-4.59 1.03,-8.65 3.11,-12.16 2.09,-3.53 4.86,-6.38 8.31,-8.51 3.46,-2.14 7.68,-3.67 12.69,-4.59 3.13,-0.61 9.09,-1.11 17.88,-1.48 8.78,-0.34 15.08,-1.29 18.88,-2.77 1.08,-3.82 1.63,-6.99 1.63,-9.52 0,-3.24 -1.18,-5.77 -3.56,-7.65 -3.24,-2.55 -7.99,-3.85 -14.21,-3.85 -5.88,0 -10.68,1.3 -14.4,3.91 -3.75,2.61 -6.46,6.3 -8.15,11.07l-14.16 -1.24c2.9,-8.12 7.46,-14.34 13.71,-18.69 6.28,-4.33 14.16,-6.49 23.68,-6.49 10.16,0 18.2,2.42 24.11,7.28 4.53,3.58 6.8,8.28 6.8,14.05 0,4.38 -0.63,9.44 -1.92,15.22l-4.57 20.41c-1.45,6.49 -2.16,11.76 -2.16,15.83 0,2.58 0.58,6.27 1.72,11.12l-14.17 0c-0.76,-2.69 -1.29,-6.06 -1.6,-10.2zm5.16 -31.36c-1.95,0.77 -4.06,1.37 -6.3,1.77 -2.24,0.42 -5.98,0.84 -11.23,1.32 -8.13,0.71 -13.87,1.63 -17.22,2.74 -3.35,1.11 -5.88,2.87 -7.57,5.3 -1.72,2.4 -2.56,5.09 -2.56,8.02 0,3.93 1.34,7.14 4.06,9.68 2.69,2.5 6.54,3.77 11.55,3.77 4.64,0 9.1,-1.22 13.37,-3.67 4.27,-2.45 7.65,-5.85 10.1,-10.23 2.48,-4.38 4.41,-10.63 5.8,-18.7zm25.31 41.56l17.17 -82.04 12.34 0 -3.45 16.75c4.22,-6.33 8.33,-11.03 12.39,-14.06 4.04,-3.03 8.18,-4.56 12.4,-4.56 2.77,0 6.19,1 10.28,3.03l-5.72 12.98c-2.43,-1.77 -5.09,-2.64 -7.97,-2.64 -4.87,0 -9.91,2.74 -15.05,8.2 -5.17,5.46 -9.21,15.27 -12.13,29.43l-6.97 32.91 -13.29 0zm110.75 -27.9l13.61 1.4c-1.95,6.75 -6.46,13.16 -13.47,19.25 -7.05,6.07 -15.43,9.1 -25.16,9.1 -6.07,0 -11.66,-1.4 -16.72,-4.19 -5.07,-2.82 -8.94,-6.91 -11.6,-12.27 -2.64,-5.35 -3.96,-11.44 -3.96,-18.3 0,-8.96 2.06,-17.64 6.2,-26.08 4.16,-8.41 9.52,-14.66 16.11,-18.78 6.59,-4.08 13.74,-6.14 21.41,-6.14 9.79,0 17.59,3.06 23.45,9.12 5.85,6.09 8.75,14.38 8.75,24.87 0,4.04 -0.34,8.15 -1.08,12.37l-60.42 0c-0.18,1.61 -0.29,3.03 -0.29,4.33 0,7.67 1.77,13.52 5.28,17.58 3.53,4.04 7.86,6.07 12.95,6.07 4.8,0 9.49,-1.58 14.13,-4.72 4.64,-3.14 8.26,-7.67 10.81,-13.61zm-40.63 -20.3l46.04 0c0.05,-1.45 0.08,-2.48 0.08,-3.09 0,-7.01 -1.74,-12.39 -5.25,-16.11 -3.51,-3.75 -8.01,-5.62 -13.53,-5.62 -5.96,0 -11.42,2.08 -16.32,6.2 -4.93,4.11 -8.6,10.31 -11.02,18.62zm109.87 48.2l14.92 -71.23 -12.52 0 2.24 -10.81 12.53 0 2.4 -11.68c1.24,-5.8 2.5,-10.02 3.82,-12.58 1.32,-2.59 3.46,-4.69 6.41,-6.38 2.95,-1.66 6.99,-2.51 12.08,-2.51 3.56,0 8.7,0.74 15.45,2.24l-2.53 12.21c-4.75,-1.24 -8.7,-1.87 -11.92,-1.87 -2.72,0 -4.8,0.69 -6.2,2.06 -1.42,1.37 -2.63,4.59 -3.69,9.7l-1.85 8.81 15.62 0 -2.25 10.81 -15.61 0 -14.9 71.23 -14 0zm42.32 -31.14c0,-16.01 4.72,-29.27 14.13,-39.77 7.78,-8.68 17.99,-13 30.59,-13 9.89,0 17.88,3.11 23.92,9.28 6.04,6.17 9.07,14.53 9.07,25.03 0,9.44 -1.89,18.2 -5.72,26.32 -3.8,8.09 -9.23,14.32 -16.24,18.64 -7.04,4.33 -14.46,6.49 -22.24,6.49 -6.38,0 -12.18,-1.35 -17.4,-4.09 -5.22,-2.71 -9.23,-6.59 -11.97,-11.58 -2.77,-5 -4.14,-10.78 -4.14,-17.32zm13.97 -1.37c0,7.72 1.88,13.58 5.57,17.56 3.72,3.98 8.44,5.99 14.13,5.99 3.01,0 5.96,-0.61 8.89,-1.82 2.95,-1.22 5.67,-3.04 8.2,-5.51 2.51,-2.48 4.67,-5.3 6.44,-8.47 1.79,-3.16 3.21,-6.57 4.3,-10.23 1.6,-5.12 2.4,-10 2.4,-14.69 0,-7.41 -1.88,-13.16 -5.62,-17.27 -3.72,-4.09 -8.41,-6.12 -14.09,-6.12 -4.37,0 -8.38,1.03 -11.97,3.11 -3.61,2.08 -6.88,5.14 -9.78,9.15 -2.9,4.03 -5.04,8.7 -6.41,14.03 -1.37,5.33 -2.06,10.07 -2.06,14.27zm69.35 32.51l17.17 -82.04 12.34 0 -3.45 16.75c4.22,-6.33 8.33,-11.03 12.39,-14.06 4.04,-3.03 8.18,-4.56 12.4,-4.56 2.77,0 6.19,1 10.28,3.03l-5.72 12.98c-2.43,-1.77 -5.09,-2.64 -7.96,-2.64 -4.88,0 -9.92,2.74 -15.06,8.2 -5.17,5.46 -9.21,15.27 -12.13,29.43l-6.97 32.91 -13.29 0zm1017.54 0l23.7 -113.26 81.76 0 -2.72 12.89 -66.59 0 -7.44 35.24 64.9 0 -2.68 12.92 -64.91 0 -8.2 39.4 71.31 0 -2.69 12.81 -86.44 0zm95.98 0l35.71 -41.64 -20.49 -40.4 15.45 0 6.96 14.58c2.59,5.46 4.91,10.71 6.96,15.7l23.63 -30.28 17.09 0 -34.47 41.48 20.71 40.56 -15.46 0 -8.17 -16.69c-1.77,-3.56 -3.75,-7.96 -5.96,-13.21l-24.42 29.9 -17.54 0zm139.05 -29.9l13.98 1.47c-3.51,10.26 -8.5,17.86 -14.96,22.84 -6.46,4.96 -13.82,7.44 -22.04,7.44 -8.92,0 -16.14,-2.87 -21.68,-8.65 -5.54,-5.78 -8.31,-13.82 -8.31,-24.18 0,-8.97 1.77,-17.78 5.33,-26.43 3.56,-8.65 8.65,-15.21 15.27,-19.72 6.62,-4.51 14.16,-6.78 22.68,-6.78 8.81,0 15.77,2.5 20.91,7.46 5.17,4.99 7.73,11.55 7.73,19.75l-13.74 0.93c-0.05,-5.22 -1.56,-9.29 -4.51,-12.21 -2.98,-2.93 -6.88,-4.41 -11.71,-4.41 -5.62,0 -10.5,1.77 -14.61,5.33 -4.11,3.56 -7.36,8.94 -9.71,16.19 -2.34,7.23 -3.5,14.19 -3.5,20.89 0,7.01 1.55,12.26 4.64,15.77 3.08,3.51 6.91,5.25 11.42,5.25 4.53,0 8.88,-1.72 13.02,-5.17 4.15,-3.46 7.42,-8.7 9.79,-15.77zm80.53 2l13.61 1.4c-1.95,6.75 -6.46,13.16 -13.48,19.25 -7.04,6.07 -15.43,9.1 -25.16,9.1 -6.06,0 -11.65,-1.4 -16.72,-4.19 -5.06,-2.82 -8.94,-6.91 -11.6,-12.27 -2.64,-5.35 -3.96,-11.44 -3.96,-18.3 0,-8.96 2.06,-17.64 6.2,-26.08 4.17,-8.41 9.52,-14.66 16.11,-18.78 6.6,-4.08 13.74,-6.14 21.42,-6.14 9.78,0 17.59,3.06 23.44,9.12 5.86,6.09 8.76,14.38 8.76,24.87 0,4.04 -0.34,8.15 -1.08,12.37l-60.42 0c-0.19,1.61 -0.29,3.03 -0.29,4.33 0,7.67 1.76,13.52 5.27,17.58 3.54,4.04 7.86,6.07 12.95,6.07 4.8,0 9.49,-1.58 14.14,-4.72 4.64,-3.14 8.25,-7.67 10.81,-13.61zm-40.64 -20.3l46.05 0c0.05,-1.45 0.07,-2.48 0.07,-3.09 0,-7.01 -1.74,-12.39 -5.24,-16.11 -3.51,-3.75 -8.02,-5.62 -13.53,-5.62 -5.96,0 -11.42,2.08 -16.33,6.2 -4.93,4.11 -8.59,10.31 -11.02,18.62zm65.1 48.2l23.66 -113.26 13.98 0 -23.66 113.26 -13.98 0zm32.96 0l23.65 -113.26 13.98 0 -23.65 113.26 -13.98 0zm94.3 -27.9l13.6 1.4c-1.95,6.75 -6.46,13.16 -13.47,19.25 -7.04,6.07 -15.43,9.1 -25.16,9.1 -6.07,0 -11.66,-1.4 -16.72,-4.19 -5.07,-2.82 -8.94,-6.91 -11.61,-12.27 -2.63,-5.35 -3.95,-11.44 -3.95,-18.3 0,-8.96 2.06,-17.64 6.2,-26.08 4.16,-8.41 9.52,-14.66 16.11,-18.78 6.59,-4.08 13.74,-6.14 21.41,-6.14 9.79,0 17.59,3.06 23.45,9.12 5.85,6.09 8.75,14.38 8.75,24.87 0,4.04 -0.34,8.15 -1.08,12.37l-60.42 0c-0.18,1.61 -0.29,3.03 -0.29,4.33 0,7.67 1.77,13.52 5.28,17.58 3.53,4.04 7.86,6.07 12.95,6.07 4.8,0 9.49,-1.58 14.13,-4.72 4.64,-3.14 8.26,-7.67 10.82,-13.61zm-40.64 -20.3l46.04 0c0.05,-1.45 0.08,-2.48 0.08,-3.09 0,-7.01 -1.74,-12.39 -5.25,-16.11 -3.51,-3.75 -8.02,-5.62 -13.53,-5.62 -5.96,0 -11.42,2.08 -16.32,6.2 -4.93,4.11 -8.6,10.31 -11.02,18.62zm66.18 48.2l17.17 -82.04 12.66 0 -3.01 14.29c5.51,-5.61 10.65,-9.73 15.45,-12.28 4.78,-2.59 9.68,-3.88 14.67,-3.88 6.64,0 11.86,1.82 15.66,5.41 3.77,3.61 5.67,8.43 5.67,14.45 0,3.06 -0.66,7.83 -2,14.37l-10.45 49.68 -13.97 0 10.89 -52c1.08,-5.04 1.63,-8.78 1.63,-11.18 0,-2.75 -0.95,-4.96 -2.82,-6.65 -1.9,-1.71 -4.61,-2.56 -8.15,-2.56 -7.17,0 -13.55,2.59 -19.12,7.73 -5.59,5.14 -9.7,13.98 -12.34,26.5l-7.94 38.16 -14 0zm142.45 -29.9l13.98 1.47c-3.51,10.26 -8.49,17.86 -14.95,22.84 -6.47,4.96 -13.82,7.44 -22.05,7.44 -8.92,0 -16.14,-2.87 -21.68,-8.65 -5.54,-5.78 -8.31,-13.82 -8.31,-24.18 0,-8.97 1.77,-17.78 5.33,-26.43 3.56,-8.65 8.65,-15.21 15.27,-19.72 6.62,-4.51 14.16,-6.78 22.68,-6.78 8.81,0 15.77,2.5 20.91,7.46 5.17,4.99 7.73,11.55 7.73,19.75l-13.74 0.93c-0.05,-5.22 -1.56,-9.29 -4.51,-12.21 -2.98,-2.93 -6.88,-4.41 -11.71,-4.41 -5.62,0 -10.5,1.77 -14.61,5.33 -4.11,3.56 -7.36,8.94 -9.7,16.19 -2.35,7.23 -3.51,14.19 -3.51,20.89 0,7.01 1.55,12.26 4.64,15.77 3.09,3.51 6.91,5.25 11.42,5.25 4.54,0 8.89,-1.72 13.03,-5.17 4.14,-3.46 7.41,-8.7 9.78,-15.77zm80.53 2l13.61 1.4c-1.95,6.75 -6.46,13.16 -13.48,19.25 -7.04,6.07 -15.42,9.1 -25.16,9.1 -6.06,0 -11.65,-1.4 -16.72,-4.19 -5.06,-2.82 -8.94,-6.91 -11.6,-12.27 -2.64,-5.35 -3.95,-11.44 -3.95,-18.3 0,-8.96 2.05,-17.64 6.19,-26.08 4.17,-8.41 9.52,-14.66 16.12,-18.78 6.59,-4.08 13.74,-6.14 21.41,-6.14 9.78,0 17.59,3.06 23.44,9.12 5.86,6.09 8.76,14.38 8.76,24.87 0,4.04 -0.34,8.15 -1.08,12.37l-60.42 0c-0.18,1.61 -0.29,3.03 -0.29,4.33 0,7.67 1.77,13.52 5.28,17.58 3.53,4.04 7.85,6.07 12.94,6.07 4.8,0 9.5,-1.58 14.14,-4.72 4.64,-3.14 8.25,-7.67 10.81,-13.61zm-40.64 -20.3l46.05 0c0.05,-1.45 0.08,-2.48 0.08,-3.09 0,-7.01 -1.74,-12.39 -5.25,-16.11 -3.51,-3.75 -8.02,-5.62 -13.53,-5.62 -5.96,0 -11.42,2.08 -16.32,6.2 -4.94,4.11 -8.6,10.31 -11.03,18.62z"/>
  <path class="fil0" d="M868.12 712.69l23.71 -113.26 47.29 0c8.2,0 14.34,0.95 18.43,2.82 4.09,1.87 7.49,5.09 10.15,9.65 2.69,4.56 4.04,9.68 4.04,15.35 0,4.67 -0.98,9.44 -2.87,14.29 -1.9,4.83 -4.3,8.84 -7.23,11.98 -2.9,3.13 -5.86,5.51 -8.84,7.09 -3,1.61 -6.19,2.79 -9.6,3.56 -7.25,1.71 -14.58,2.56 -21.99,2.56l-28.38 0 -9.57 45.96 -15.14 0zm27.43 -58.81l24.95 0c9.68,0 16.8,-1.02 21.33,-3.11 4.54,-2.08 8.15,-5.27 10.9,-9.54 2.71,-4.28 4.08,-8.81 4.08,-13.61 0,-3.69 -0.71,-6.73 -2.16,-9.07 -1.45,-2.35 -3.48,-4.06 -6.09,-5.17 -2.64,-1.11 -7.68,-1.66 -15.16,-1.66l-29.04 0 -8.81 42.16zm134.62 30.91l13.61 1.4c-1.95,6.75 -6.46,13.16 -13.48,19.25 -7.04,6.07 -15.43,9.1 -25.16,9.1 -6.06,0 -11.65,-1.4 -16.72,-4.19 -5.06,-2.82 -8.94,-6.91 -11.6,-12.27 -2.64,-5.35 -3.96,-11.44 -3.96,-18.3 0,-8.96 2.06,-17.64 6.2,-26.08 4.17,-8.41 9.52,-14.66 16.12,-18.78 6.59,-4.08 13.73,-6.14 21.41,-6.14 9.78,0 17.59,3.06 23.44,9.12 5.86,6.09 8.76,14.38 8.76,24.87 0,4.04 -0.34,8.15 -1.08,12.37l-60.42 0c-0.18,1.61 -0.29,3.03 -0.29,4.33 0,7.67 1.77,13.52 5.27,17.58 3.54,4.04 7.86,6.07 12.95,6.07 4.8,0 9.5,-1.58 14.14,-4.72 4.64,-3.14 8.25,-7.67 10.81,-13.61zm-40.64 -20.3l46.05 0c0.05,-1.45 0.08,-2.48 0.08,-3.09 0,-7.01 -1.75,-12.39 -5.25,-16.11 -3.51,-3.75 -8.02,-5.62 -13.53,-5.62 -5.96,0 -11.42,2.08 -16.33,6.2 -4.93,4.11 -8.59,10.31 -11.02,18.62zm66.18 48.2l17.17 -82.04 12.34 0 -3.45 16.75c4.22,-6.33 8.33,-11.03 12.39,-14.06 4.04,-3.03 8.18,-4.56 12.4,-4.56 2.77,0 6.2,1 10.29,3.03l-5.73 12.98c-2.42,-1.77 -5.09,-2.64 -7.96,-2.64 -4.88,0 -9.92,2.74 -15.06,8.2 -5.17,5.46 -9.2,15.27 -12.13,29.43l-6.96 32.91 -13.3 0zm52.42 0l14.93 -71.23 -12.53 0 2.24 -10.81 12.53 0 2.4 -11.68c1.24,-5.8 2.51,-10.02 3.82,-12.58 1.32,-2.59 3.46,-4.69 6.41,-6.38 2.96,-1.66 6.99,-2.51 12.08,-2.51 3.56,0 8.7,0.74 15.45,2.24l-2.53 12.21c-4.74,-1.24 -8.7,-1.87 -11.92,-1.87 -2.71,0 -4.8,0.69 -6.19,2.06 -1.43,1.37 -2.64,4.59 -3.7,9.7l-1.84 8.81 15.61 0 -2.24 10.81 -15.61 0 -14.9 71.23 -14.01 0zm42.32 -31.14c0,-16.01 4.72,-29.27 14.14,-39.77 7.78,-8.68 17.98,-13 30.59,-13 9.89,0 17.88,3.11 23.92,9.28 6.04,6.17 9.07,14.53 9.07,25.03 0,9.44 -1.9,18.2 -5.72,26.32 -3.8,8.09 -9.23,14.32 -16.25,18.64 -7.04,4.33 -14.45,6.49 -22.23,6.49 -6.38,0 -12.18,-1.35 -17.41,-4.09 -5.22,-2.71 -9.23,-6.59 -11.97,-11.58 -2.77,-5 -4.14,-10.78 -4.14,-17.32zm13.98 -1.37c0,7.72 1.87,13.58 5.56,17.56 3.72,3.98 8.44,5.99 14.14,5.99 3,0 5.96,-0.61 8.89,-1.82 2.95,-1.22 5.67,-3.04 8.2,-5.51 2.5,-2.48 4.66,-5.3 6.43,-8.47 1.8,-3.16 3.22,-6.57 4.3,-10.23 1.61,-5.12 2.4,-10 2.4,-14.69 0,-7.41 -1.87,-13.16 -5.62,-17.27 -3.72,-4.09 -8.41,-6.12 -14.08,-6.12 -4.38,0 -8.39,1.03 -11.97,3.11 -3.62,2.08 -6.89,5.14 -9.79,9.15 -2.9,4.03 -5.03,8.7 -6.4,14.03 -1.38,5.33 -2.06,10.07 -2.06,14.27zm69.35 32.51l17.16 -82.04 12.35 0 -3.46 16.75c4.22,-6.33 8.34,-11.03 12.4,-14.06 4.03,-3.03 8.17,-4.56 12.39,-4.56 2.77,0 6.2,1 10.29,3.03l-5.73 12.98c-2.42,-1.77 -5.09,-2.64 -7.96,-2.64 -4.88,0 -9.92,2.74 -15.06,8.2 -5.17,5.46 -9.2,15.27 -12.13,29.43l-6.96 32.91 -13.29 0zm50.41 0l17.17 -82.04 13.98 0 -2.85 13.5c5.19,-5.8 9.83,-9.83 13.92,-12.05 4.12,-2.21 8.55,-3.32 13.35,-3.32 5.09,0 9.36,1.37 12.79,4.06 3.4,2.72 5.67,6.49 6.75,11.31 4.16,-5.14 8.57,-8.99 13.16,-11.55 4.61,-2.53 9.46,-3.82 14.58,-3.82 6.83,0 11.97,1.63 15.4,4.88 3.43,3.24 5.14,7.8 5.14,13.66 0,2.53 -0.58,6.7 -1.76,12.53l-11.05 52.84 -14.01 0 11.29 -54.24c0.98,-4.43 1.48,-7.6 1.48,-9.5 0,-2.69 -0.85,-4.8 -2.56,-6.33 -1.69,-1.55 -4.09,-2.32 -7.17,-2.32 -4.2,0 -8.44,1.27 -12.77,3.77 -4.32,2.54 -7.67,5.86 -10.07,9.95 -2.4,4.08 -4.49,10.39 -6.3,18.88l-8.34 39.79 -14 0 11.6 -55.4c0.82,-3.75 1.24,-6.44 1.24,-8.02 0,-2.69 -0.84,-4.85 -2.5,-6.49 -1.69,-1.66 -3.85,-2.48 -6.54,-2.48 -3.96,0 -8.13,1.27 -12.48,3.77 -4.35,2.54 -7.88,6.04 -10.62,10.55 -2.72,4.51 -4.96,10.95 -6.73,19.28l-8.1 38.79 -14 0zm185.02 -10.2c-4.86,4.17 -9.5,7.22 -13.98,9.15 -4.48,1.95 -9.28,2.9 -14.37,2.9 -7.57,0 -13.69,-2.22 -18.33,-6.67 -4.62,-4.46 -6.94,-10.15 -6.94,-17.12 0,-4.59 1.03,-8.65 3.11,-12.16 2.09,-3.53 4.86,-6.38 8.31,-8.51 3.46,-2.14 7.68,-3.67 12.69,-4.59 3.13,-0.61 9.09,-1.11 17.88,-1.48 8.78,-0.34 15.08,-1.29 18.88,-2.77 1.08,-3.82 1.63,-6.99 1.63,-9.52 0,-3.24 -1.18,-5.77 -3.56,-7.65 -3.24,-2.55 -7.99,-3.85 -14.21,-3.85 -5.88,0 -10.68,1.3 -14.4,3.91 -3.75,2.61 -6.46,6.3 -8.15,11.07l-14.16 -1.24c2.9,-8.12 7.46,-14.34 13.71,-18.69 6.28,-4.33 14.16,-6.49 23.68,-6.49 10.16,0 18.2,2.42 24.11,7.28 4.53,3.58 6.8,8.28 6.8,14.05 0,4.38 -0.63,9.44 -1.92,15.22l-4.57 20.41c-1.45,6.49 -2.16,11.76 -2.16,15.83 0,2.58 0.58,6.27 1.72,11.12l-14.17 0c-0.76,-2.69 -1.29,-6.06 -1.6,-10.2zm5.16 -31.36c-1.95,0.77 -4.06,1.37 -6.3,1.77 -2.24,0.42 -5.98,0.84 -11.23,1.32 -8.13,0.71 -13.87,1.63 -17.22,2.74 -3.35,1.11 -5.88,2.87 -7.57,5.3 -1.72,2.4 -2.56,5.09 -2.56,8.02 0,3.93 1.35,7.14 4.06,9.68 2.69,2.5 6.54,3.77 11.55,3.77 4.64,0 9.1,-1.22 13.37,-3.67 4.27,-2.45 7.65,-5.85 10.1,-10.23 2.48,-4.38 4.41,-10.63 5.8,-18.7zm25.31 41.56l17.17 -82.04 12.66 0 -3.01 14.29c5.51,-5.61 10.66,-9.73 15.46,-12.28 4.77,-2.59 9.67,-3.88 14.66,-3.88 6.65,0 11.87,1.82 15.66,5.41 3.78,3.61 5.67,8.43 5.67,14.45 0,3.06 -0.66,7.83 -2,14.37l-10.44 49.68 -13.98 0 10.89 -52c1.08,-5.04 1.64,-8.78 1.64,-11.18 0,-2.75 -0.95,-4.96 -2.83,-6.65 -1.89,-1.71 -4.61,-2.56 -8.14,-2.56 -7.18,0 -13.56,2.59 -19.12,7.73 -5.59,5.14 -9.71,13.98 -12.35,26.5l-7.93 38.16 -14.01 0zm142.45 -29.9l13.98 1.47c-3.51,10.26 -8.49,17.86 -14.95,22.84 -6.46,4.96 -13.82,7.44 -22.05,7.44 -8.91,0 -16.14,-2.87 -21.68,-8.65 -5.53,-5.78 -8.3,-13.82 -8.3,-24.18 0,-8.97 1.76,-17.78 5.32,-26.43 3.56,-8.65 8.65,-15.21 15.27,-19.72 6.62,-4.51 14.16,-6.78 22.68,-6.78 8.81,0 15.77,2.5 20.92,7.46 5.16,4.99 7.72,11.55 7.72,19.75l-13.74 0.93c-0.05,-5.22 -1.55,-9.29 -4.51,-12.21 -2.98,-2.93 -6.88,-4.41 -11.71,-4.41 -5.61,0 -10.49,1.77 -14.61,5.33 -4.11,3.56 -7.35,8.94 -9.7,16.19 -2.35,7.23 -3.51,14.19 -3.51,20.89 0,7.01 1.56,12.26 4.64,15.77 3.09,3.51 6.91,5.25 11.42,5.25 4.54,0 8.89,-1.72 13.03,-5.17 4.14,-3.46 7.41,-8.7 9.78,-15.77zm80.53 2l13.61 1.4c-1.95,6.75 -6.46,13.16 -13.47,19.25 -7.05,6.07 -15.43,9.1 -25.16,9.1 -6.07,0 -11.66,-1.4 -16.72,-4.19 -5.07,-2.82 -8.94,-6.91 -11.61,-12.27 -2.63,-5.35 -3.95,-11.44 -3.95,-18.3 0,-8.96 2.05,-17.64 6.2,-26.08 4.16,-8.41 9.51,-14.66 16.11,-18.78 6.59,-4.08 13.74,-6.14 21.41,-6.14 9.79,0 17.59,3.06 23.45,9.12 5.85,6.09 8.75,14.38 8.75,24.87 0,4.04 -0.34,8.15 -1.08,12.37l-60.42 0c-0.18,1.61 -0.29,3.03 -0.29,4.33 0,7.67 1.77,13.52 5.28,17.58 3.53,4.04 7.86,6.07 12.95,6.07 4.8,0 9.49,-1.58 14.13,-4.72 4.64,-3.14 8.26,-7.67 10.81,-13.61zm-40.63 -20.3l46.04 0c0.05,-1.45 0.08,-2.48 0.08,-3.09 0,-7.01 -1.74,-12.39 -5.25,-16.11 -3.51,-3.75 -8.02,-5.62 -13.53,-5.62 -5.96,0 -11.42,2.08 -16.32,6.2 -4.93,4.11 -8.6,10.31 -11.02,18.62z"/>
  <path class="fil1" d="M2598.2 142.4c11.14,-47.73 -7.16,-71.6 -54.89,-71.6l-1472.05 0c-47.74,0 -77.17,23.87 -88.31,71.6l-77.17 339.69c-11.13,47.73 7.16,71.6 55.69,71.6l1472.05 0c46.94,0 76.38,-23.87 87.51,-71.6l77.17 -339.69z"/>
  <path class="fil2" d="M168.62 34.1c-47.73,0 -77.16,23.87 -88.3,71.6l-77.17 339.69c-11.13,47.73 7.16,71.6 55.69,71.6l826.72 0c46.94,0 76.37,-23.87 87.51,-71.6l77.17 -339.69c11.14,-47.73 -7.16,-71.6 -54.89,-71.6l-826.73 0z"/>
  <path class="fil3" d="M304.96 238.94c-17.12,-7.95 -26.43,-12.72 -27.23,-12.72 -6.13,-4.78 -9.08,-9.55 -8.81,-15.12 0.42,-8.75 6.22,-13.52 16.56,-13.52 16.71,0 35.26,11.13 57.26,33.41l45.14 -77.96c-28.17,-26.26 -62.52,-39.78 -103.89,-39.78 -35.79,0 -65.77,11.14 -89.04,31.82 -22.48,20.68 -34.93,47.73 -36.51,80.35 -1.96,40.57 20.44,70.8 67.14,92.28 19.42,9.55 29.42,16.71 29.15,22.28 -0.39,7.95 -6.94,11.93 -19.67,11.93 -27.05,0 -52.53,-15.91 -74.07,-47.73l-56.5 82.73c38.72,38.19 80.76,57.28 127.69,57.28 35.8,0 66.57,-11.14 91.51,-33.41 24.95,-22.28 37.39,-49.32 39.01,-82.74 1.85,-38.18 -17.37,-68.41 -57.74,-89.1z"/>
  <path class="fil3" d="M570.3 235.76c-18.17,-19.09 -43.17,-28.64 -74.99,-28.64 -35.8,0 -66.68,13.52 -93.45,40.57 -23.5,25.46 -36.14,56.49 -37.95,93.87 -1.47,30.24 6.89,54.9 25.06,73.99 18.92,19.89 43.12,29.44 73.35,29.44 40.58,0 74.76,-15.92 101.04,-49.33 20.24,-23.86 30.34,-51.71 31.8,-81.94 1.54,-31.82 -6.73,-58.07 -24.86,-77.96zm-115.24 96.26c0.5,-10.34 3.27,-18.3 9.23,-26.25 5.87,-6.37 12.43,-10.35 20.38,-10.35 14.32,0 21.06,8.76 20.29,24.67 -1.19,24.66 -11.32,36.59 -29.61,36.59 -14.32,0 -21.06,-8.75 -20.29,-24.66z"/>
  <path class="fil3" d="M796.23 106.09c-16.4,-6.37 -32.15,-9.55 -47.27,-9.55 -56.48,0 -91.78,38.98 -108.28,116.95l-24.66 0 -18.21 80.34 25.46 0 -30.76 142.4 95.47 0 30.75 -142.4 36.6 0 17.41 -80.34 -35.8 0c1.8,-20.69 8.62,-30.23 20.56,-30.23 6.36,0 12.61,2.38 20.33,7.16l18.4 -84.33z"/>
  <polygon class="fil3" points="906.93,213.49 920.27,151.43 823.22,151.43 809.87,213.49 783.62,213.49 766.21,293.83 791.66,293.83 760.91,436.23 857.17,436.23 888.72,293.83 918.95,293.83 936.36,213.49 "/>
  <polygon class="fil3" points="1193.21,366.6 1200.12,333.98 1296.38,333.98 1313.87,257.23 1217.61,257.23 1225.17,228.45 1327,228.45 1345.56,144.98 1131.56,144.98 1060.93,449.11 1284.47,449.11 1303.79,366.6 "/>
  <path class="fil3" d="M1465.3 257.23l-11.78 -23.03 -115.35 0 64.97 102.66 -114.42 112.25 123.31 0 15.79 -16.31c4.97,-4.8 12.48,-13.43 22.59,-26.86l25.26 43.17 114.56 0 -68.04 -105.53 108.73 -109.38 -118.53 0 -19.21 22.07c-6.64,6.72 -11.77,15.35 -17.7,23.99 -2.15,-5.76 -5.81,-13.43 -10.18,-23.03z"/>
  <path class="fil3" d="M1848.33 253.39c-14.4,-17.27 -33.97,-24.94 -57.84,-24.94 -24.66,0 -45.78,10.55 -64.15,31.66l6.63 -25.91 -97.85 0 -65.83 279.99 102.62 0 15.44 -61.24c2.98,-14.39 4.09,-22.07 4.17,-23.99l-0.36 -10.55c16.43,25.91 36.6,38.38 61.26,38.38 31.82,0 59.47,-14.4 82.13,-43.18 21.8,-26.86 33.41,-57.56 34.83,-92.1 1.15,-27.82 -5.89,-49.89 -21.05,-68.12zm-81.37 82.51c-0.95,23.03 -11.77,34.54 -30.86,34.54 -15.91,0 -23.51,-8.63 -22.8,-25.9 0.88,-21.11 10.9,-32.62 32.38,-32.62 14.32,0 21.91,8.63 21.28,23.98z"/>
  <path class="fil3" d="M2115.7 323.43c1.11,-26.86 -8.28,-49.89 -27.42,-68.12 -19.93,-18.23 -45.83,-26.86 -78.44,-26.86 -38.98,0 -72.12,12.47 -99.48,39.34 -24.85,23.98 -38.02,53.72 -39.48,89.22 -1.19,28.78 8.16,52.77 28.05,71.95 19.14,18.23 45.79,27.83 77.61,27.83 54.89,0 96.46,-23.99 123.89,-71.96l-77.28 -16.31c-10.11,13.43 -20.69,19.19 -31.82,19.19 -18.3,0 -25.78,-11.51 -24.87,-33.58l146.38 0c1.19,-9.59 2.42,-20.15 2.86,-30.7zm-88.71 -9.59l-53.3 0c7.04,-16.31 17.74,-24.95 32.85,-24.95 14.32,0 21.17,7.68 20.57,22.07l-0.12 2.88z"/>
  <path class="fil3" d="M2293.07 228.45c-25.46,0 -46.62,11.51 -62.72,35.49l9.18 -29.74 -95.46 0 -49.45 214.91 104.22 0 21.46 -95.94c6.72,-27.82 20.04,-42.21 42.31,-42.21 9.55,0 21.37,2.88 35.49,7.67l20.31 -87.3c-9.43,-2.88 -18.18,-2.88 -25.34,-2.88z"/>
  <polygon class="fil3" points="2454.96,234.2 2468.55,174.72 2365.14,174.72 2350.75,234.2 2322.9,234.2 2305.37,311.92 2333.22,311.92 2302.1,449.11 2405.51,449.11 2437.43,311.92 2469.25,311.92 2486.78,234.2 "/>
  <path class="fil1" d="M2673.68 13.52c-8.75,-8.75 -19.89,-13.52 -32.62,-13.52 -12.72,0 -23.86,4.77 -33.41,13.52 -8.75,9.55 -13.52,20.69 -13.52,33.42 0,12.73 4.77,23.86 13.52,33.41 9.55,9.55 20.69,13.52 33.41,13.52 12.73,0 23.87,-3.97 32.62,-13.52l0.8 0c8.75,-9.55 13.52,-20.68 13.52,-33.41 0,-12.73 -4.77,-23.87 -14.32,-33.42zm-5.57 6.37c7.16,7.16 11.14,16.71 11.14,27.05 0,10.34 -3.98,19.88 -11.14,27.05 -7.95,7.95 -16.71,11.13 -27.05,11.13 -10.34,0 -19.88,-3.18 -27.04,-11.13 -7.16,-7.17 -11.14,-16.71 -11.14,-27.05 0,-10.34 3.18,-19.89 11.14,-27.05 7.16,-7.16 16.7,-11.14 27.04,-11.14 10.34,0 19.1,3.98 27.05,11.14z"/>
  <path class="fil1" d="M2658.56 26.4c-3.18,-1.59 -7.16,-2.39 -11.13,-2.39l-24.66 0 0 52.5 7.16 0 0 -22.27 15.91 0c3.18,0 5.56,0 7.16,1.59 2.38,0.8 3.18,3.18 3.18,6.36l0.8 8.76c0,0.79 0,1.59 0,2.38 0,0.8 0,1.59 0,1.59l0.79 1.59 8.75 0 0 -0.79c-0.8,-0.8 -1.59,-1.59 -2.39,-3.18 0,-0.8 -0.79,-2.39 -0.79,-4.78l0 -7.15c0,-1.6 0,-2.39 -0.8,-3.98 0,-0.8 -0.79,-1.6 -0.79,-3.19 -0.8,-0.79 -2.39,-1.59 -4.77,-2.38 2.38,-1.59 3.97,-3.18 5.56,-4.77 0.8,-2.39 1.59,-4.78 1.59,-7.96 0,-6.36 -1.59,-9.55 -5.57,-11.93zm-11.13 3.97c2.38,0 4.77,0.8 6.36,1.6 2.39,0.79 3.19,3.18 3.19,7.16 0,3.18 -0.8,5.56 -2.39,7.16 -2.39,1.59 -4.78,2.38 -7.96,2.38l-16.7 0 0 -18.3 17.5 0z"/>
 </g>
</svg>
